<svg width="194" height="84" viewBox="0 0 194 84" fill="none" xmlns="http://www.w3.org/2000/svg">
<path fill-rule="evenodd" clip-rule="evenodd" d="M6.97266 29.082H14.6875V6.83594H21.6406V0.527344H0V6.83594H6.97266V29.082ZM183.729 29.082H193.846V0.527344H186.971V13.4375C186.971 14.0885 186.984 14.8372 187.01 15.6836C187.049 16.5299 187.088 17.3698 187.127 18.2031C187.166 19.0234 187.205 19.7461 187.245 20.3711H187.127L176.737 0.527344H166.659V29.082H173.495V16.2109C173.495 15.4948 173.475 14.694 173.436 13.8086C173.397 12.9102 173.351 12.0312 173.299 11.1719C173.247 10.3125 173.189 9.57682 173.123 8.96484H173.299L183.729 29.082ZM155.195 74.7812C155.729 72.9714 155.996 70.9661 155.996 68.7656C155.996 65.7969 155.521 63.2122 154.57 61.0117C153.62 58.8112 152.122 57.1055 150.078 55.8945C148.047 54.6836 145.404 54.0781 142.148 54.0781C138.945 54.0781 136.315 54.6836 134.258 55.8945C132.201 57.0924 130.677 58.7917 129.688 60.9922C128.711 63.1797 128.223 65.7578 128.223 68.7266C128.223 70.9531 128.496 72.9714 129.043 74.7812C129.59 76.5911 130.43 78.1471 131.562 79.4492C132.695 80.7383 134.134 81.7344 135.879 82.4375C137.637 83.1276 139.714 83.4727 142.109 83.4727C144.557 83.4727 146.66 83.1276 148.418 82.4375C150.176 81.7344 151.615 80.7318 152.734 79.4297C153.854 78.1276 154.674 76.5781 155.195 74.7812ZM136.934 73.1992C136.543 71.9622 136.348 70.4844 136.348 68.7656C136.348 67.0469 136.536 65.5625 136.914 64.3125C137.305 63.0625 137.923 62.099 138.77 61.4219C139.629 60.7448 140.755 60.4062 142.148 60.4062C144.245 60.4062 145.723 61.1549 146.582 62.6523C147.441 64.1497 147.871 66.1875 147.871 68.7656C147.871 70.4844 147.682 71.9622 147.305 73.1992C146.94 74.4362 146.335 75.3867 145.488 76.0508C144.655 76.7148 143.529 77.0469 142.109 77.0469C140.742 77.0469 139.635 76.7148 138.789 76.0508C137.943 75.3867 137.324 74.4362 136.934 73.1992ZM135.059 46.6953C134.421 47.1901 134.102 47.9714 134.102 49.0391C134.102 50.0677 134.421 50.8359 135.059 51.3438C135.697 51.8385 136.484 52.0859 137.422 52.0859C138.32 52.0859 139.102 51.8385 139.766 51.3438C140.443 50.8359 140.781 50.0677 140.781 49.0391C140.781 47.9714 140.443 47.1901 139.766 46.6953C139.102 46.2005 138.32 45.9531 137.422 45.9531C136.484 45.9531 135.697 46.2005 135.059 46.6953ZM144.414 46.6953C143.776 47.1901 143.457 47.9714 143.457 49.0391C143.457 50.0677 143.776 50.8359 144.414 51.3438C145.065 51.8385 145.866 52.0859 146.816 52.0859C147.728 52.0859 148.516 51.8385 149.18 51.3438C149.857 50.8359 150.195 50.0677 150.195 49.0391C150.195 47.9714 149.857 47.1901 149.18 46.6953C148.516 46.2005 147.728 45.9531 146.816 45.9531C145.866 45.9531 145.065 46.2005 144.414 46.6953ZM167.754 62.5156L173.594 83.082H180.938L186.699 62.5547H186.875C186.836 63.0885 186.79 63.8177 186.738 64.7422C186.699 65.6536 186.66 66.6302 186.621 67.6719C186.595 68.7005 186.582 69.6641 186.582 70.5625V83.082H193.672V54.5273H183.379L177.539 74.8008H177.383L171.426 54.5273H161.152V83.082H167.988V70.6797C167.988 69.7031 167.962 68.6875 167.91 67.6328C167.858 66.5781 167.799 65.5951 167.734 64.6836C167.682 63.7721 167.63 63.0495 167.578 62.5156H167.754ZM111.562 54.5273C114.154 54.5273 116.309 54.8464 118.027 55.4844C119.746 56.1094 121.035 57.0469 121.895 58.2969C122.767 59.5469 123.203 61.1029 123.203 62.9648C123.203 64.1237 123.008 65.1784 122.617 66.1289C122.227 67.0794 121.667 67.9323 120.938 68.6875C120.221 69.4297 119.362 70.0807 118.359 70.6406L126.68 83.082H117.93L111.875 72.6914H109.922V83.082H102.207V54.5273H111.562ZM111.445 60.3672H109.922V66.8906H111.367C112.552 66.8906 113.522 66.6302 114.277 66.1094C115.033 65.5885 115.41 64.6576 115.41 63.3164C115.41 62.3919 115.098 61.6693 114.473 61.1484C113.848 60.6276 112.839 60.3672 111.445 60.3672ZM96.3867 66.3633H84.0625V72.3203H89.1602V76.793C88.8216 76.8841 88.3203 76.9622 87.6562 77.0273C87.0052 77.0924 86.4518 77.125 85.9961 77.125C84.6159 77.125 83.4375 76.8125 82.4609 76.1875C81.4974 75.5495 80.7617 74.625 80.2539 73.4141C79.7591 72.1901 79.5117 70.6927 79.5117 68.9219C79.5117 67.3724 79.7461 65.9596 80.2148 64.6836C80.6836 63.3945 81.4323 62.3659 82.4609 61.5977C83.5026 60.8294 84.8763 60.4453 86.582 60.4453C87.8581 60.4453 89.0495 60.5755 90.1562 60.8359C91.263 61.0833 92.3307 61.4609 93.3594 61.9688L95.8008 55.9141C94.6159 55.3932 93.2227 54.9635 91.6211 54.625C90.0195 54.2865 88.3268 54.1172 86.543 54.1172C83.3008 54.1172 80.5599 54.7161 78.3203 55.9141C76.0938 57.099 74.4076 58.7852 73.2617 60.9727C72.1159 63.1471 71.543 65.7318 71.543 68.7266C71.543 72.0599 72.1224 74.8203 73.2812 77.0078C74.4401 79.1823 76.0547 80.8034 78.125 81.8711C80.1953 82.9388 82.6042 83.4727 85.3516 83.4727C87.4349 83.4727 89.4271 83.3164 91.3281 83.0039C93.2292 82.6784 94.9154 82.2617 96.3867 81.7539V66.3633ZM49.3164 83.082V54.5273H57.0312V76.8516H68.0273V83.082H49.3164ZM27.3633 83.082H44.3164V76.793H35.0781V71.4023H43.6328V65.2109H35.0781V60.7188H44.3164V54.5273H27.3633V83.082ZM11.9727 54.5273C15.5924 54.5273 18.3008 55.3151 20.0977 56.8906C21.9076 58.4661 22.8125 60.7057 22.8125 63.6094C22.8125 64.9115 22.6237 66.1615 22.2461 67.3594C21.8815 68.5573 21.276 69.625 20.4297 70.5625C19.5964 71.5 18.4831 72.2422 17.0898 72.7891C15.7096 73.3359 14.0039 73.6094 11.9727 73.6094H9.80469V83.082H2.08984V54.5273H11.9727ZM11.7969 60.7578H9.80469V67.3203H11.3281C11.9922 67.3203 12.6107 67.2096 13.1836 66.9883C13.7565 66.7539 14.2122 66.3828 14.5508 65.875C14.9023 65.3542 15.0781 64.6641 15.0781 63.8047C15.0781 62.9062 14.8112 62.1771 14.2773 61.6172C13.7435 61.0443 12.9167 60.7578 11.7969 60.7578ZM158.059 29.082H141.105V0.527344H158.059V6.71875H148.82V11.2109H157.375V17.4023H148.82V22.793H158.059V29.082ZM105.435 8.51562L111.275 29.082H118.619L124.38 8.55469H124.556C124.517 9.08854 124.472 9.81771 124.42 10.7422C124.38 11.6536 124.341 12.6302 124.302 13.6719C124.276 14.7005 124.263 15.6641 124.263 16.5625V29.082H131.353V0.527344H121.06L115.22 20.8008H115.064L109.107 0.527344H98.8336V29.082H105.67V16.6797C105.67 15.7031 105.644 14.6875 105.591 13.6328C105.539 12.5781 105.481 11.5951 105.416 10.6836C105.364 9.77214 105.311 9.04948 105.259 8.51562H105.435ZM78.8859 38.0469C78.0135 38.0469 77.2518 38.0013 76.6008 37.9102C75.9367 37.832 75.3638 37.7409 74.882 37.6367V31.6406C75.2987 31.7188 75.7414 31.8034 76.2101 31.8945C76.6789 31.9987 77.1867 32.0508 77.7336 32.0508C78.6581 32.0508 79.3742 31.862 79.882 31.4844C80.4029 31.1068 80.7674 30.5404 80.9758 29.7852C81.1841 29.0299 81.2883 28.0859 81.2883 26.9531V0.527344H89.0422V26.2891C89.0422 29.1536 88.6125 31.4453 87.7531 33.1641C86.8937 34.8828 85.7023 36.1263 84.1789 36.8945C82.6555 37.6628 80.8911 38.0469 78.8859 38.0469ZM63.5867 0.527344V29.082H71.3406V0.527344H63.5867ZM53.7953 29.082H46.0414V17.4414H37.0765V29.082H29.3226V0.527344H37.0765V11.1133H46.0414V0.527344H53.7953V29.082Z" fill="black"/>
</svg>
