<svg width="163" height="92" viewBox="0 0 163 92" fill="none" xmlns="http://www.w3.org/2000/svg">
<path fill-rule="evenodd" clip-rule="evenodd" d="M26.5703 4.3009V2.38549L38.5303 0.459045V10.5069C38.6504 10.5029 38.7704 10.5009 38.8903 10.5009C40.8357 10.5009 42.6705 10.7685 44.2723 11.4465C45.8202 12.0652 47.1681 13.004 48.1964 14.3111C49.1177 15.4516 49.7517 16.7591 50.125 18.1849V10.9809H50.2232C49.7421 10.0298 49.525 8.97723 49.525 7.90092C49.525 6.11989 50.1219 4.38262 51.575 3.0959C52.8415 1.97145 54.3888 1.38092 56.085 1.38092C57.7653 1.38092 59.3063 1.96173 60.5568 3.09709C61.1044 3.57287 61.5346 4.11296 61.8585 4.69695C62.1754 4.11493 62.5973 3.57428 63.1376 3.0959C64.404 1.97145 65.9514 1.38092 67.6475 1.38092C69.3278 1.38092 70.8688 1.96173 72.1193 3.09709C73.5831 4.36879 74.2075 6.09993 74.2075 7.90092C74.2075 8.98432 73.9825 10.0356 73.495 10.9809H73.6475V12.2836L75.4865 11.7997C76.0536 11.6505 76.6864 11.5069 77.379 11.3677C78.1327 11.1951 78.9077 11.0519 79.7032 10.9372C80.5514 10.7924 81.4107 10.6906 82.2808 10.6309C83.1593 10.5446 84.0292 10.5009 84.89 10.5009C86.6132 10.5009 88.2689 10.7193 89.7023 11.3225C90.1575 11.5013 90.5994 11.7014 91.0232 11.9257C91.6365 11.6265 92.2775 11.3723 92.9433 11.1612L92.9531 11.1581L92.9629 11.1551C94.3001 10.7412 95.6304 10.5009 96.93 10.5009C98.8464 10.5009 100.665 10.7675 102.24 11.4666C103.756 12.1027 105.062 13.0634 106.05 14.3809C106.957 15.5909 107.553 16.9748 107.878 18.4725C108.585 16.8181 109.527 15.3531 110.741 14.1396C111.955 12.9253 113.363 11.9897 114.948 11.3555L114.958 11.3513L114.969 11.3472C116.534 10.735 118.157 10.421 119.822 10.421C123.469 10.421 126.676 11.5706 129.078 14.1159C129.92 14.9983 130.588 15.9964 131.102 17.0885V12.4462L133.267 11.8192C134.451 11.4766 135.893 11.1874 137.553 10.9377C139.321 10.6444 141.159 10.5009 143.062 10.5009C145.074 10.5009 146.959 10.7655 148.599 11.4287C150.196 12.0382 151.598 12.9703 152.67 14.2891C153.667 15.5161 154.343 16.9371 154.732 18.4933C155.095 19.9447 155.262 21.5007 155.262 23.1409V38.0209H143.302V23.8609C143.302 23.0201 143.245 22.3947 143.162 21.9503C143.135 21.8028 143.107 21.6885 143.082 21.6023L143.062 21.5998V38.0209H131.102V36.1954L129.604 36.9442C129.07 37.2113 128.463 37.429 127.844 37.6144C127.181 37.8135 126.471 37.9702 125.725 38.0921C124.996 38.2414 124.227 38.3576 123.422 38.4439C122.57 38.5352 121.716 38.581 120.862 38.581C118.68 38.581 116.637 38.259 114.797 37.53L114.788 37.5264L114.779 37.5227C113.051 36.8248 111.528 35.8445 110.271 34.5522L110.242 34.5219L110.213 34.4908C109.464 33.6752 108.837 32.775 108.33 31.7993V38.0209H73.25V37.8927C72.821 39.6748 72.0172 41.2793 70.7077 42.5631C68.6158 44.6141 65.7953 45.4209 62.7275 45.4209C62.1854 45.4209 61.5081 45.366 60.7623 45.2832C59.8274 45.1827 58.9227 44.9949 58.0588 44.707L55.6302 43.8974L56.6015 38.0209L50.7303 38.0209H38.7703V23.8609C38.7703 23.0201 38.7138 22.3947 38.631 21.9503C38.6024 21.7966 38.5733 21.679 38.5479 21.5916L38.5303 21.5901V38.0209H26.5703V15.6209H20.6V38.0209H8.36V15.6209H0V4.3009H26.5703ZM47.2903 19.2209C47.0236 18.0476 46.5436 17.0343 45.8503 16.1809C45.1836 15.3276 44.277 14.6743 43.1303 14.2209C42.0103 13.7409 40.597 13.5009 38.8903 13.5009C38.7714 13.5009 38.6514 13.5037 38.5303 13.5091C38.0539 13.5307 37.5606 13.5946 37.0503 13.7009C36.437 13.8076 35.9303 13.9276 35.5303 14.0609V3.98093L29.5703 4.94093V35.0209H35.5303V19.0209C35.9036 18.9143 36.317 18.8209 36.7703 18.7409C37.2503 18.6343 37.757 18.5809 38.2903 18.5809C39.6236 18.5809 40.5303 18.9809 41.0103 19.7809C41.517 20.5809 41.7703 21.9409 41.7703 23.8609V35.0209H47.7303V23.1409C47.7303 21.7009 47.5836 20.3943 47.2903 19.2209ZM60.9275 37.3009C61.2066 37.3474 61.5566 37.3737 61.9776 37.3796L62.0445 37.3804L62.085 37.3807L62.1675 37.3809C63.1008 37.3809 63.7542 37.1009 64.1275 36.5409C64.5008 35.9809 64.6875 35.1676 64.6875 34.1009V13.9809H70.6475V34.2609C70.6475 37.0343 69.9675 39.0876 68.6075 40.4209C67.2475 41.7543 65.2875 42.4209 62.7275 42.4209C62.3542 42.4209 61.8075 42.3809 61.0875 42.3009C60.3408 42.2209 59.6475 42.0743 59.0075 41.8609L59.6422 38.0209L59.8075 37.0209C60.2075 37.1543 60.5808 37.2476 60.9275 37.3009ZM57.0974 35.0209H59.085L59.085 13.9809H53.125V35.0209H57.0974ZM69.4479 10.9809C69.6871 10.8501 69.9137 10.6901 70.1275 10.5009C70.8475 9.86092 71.2075 8.99425 71.2075 7.90092C71.2075 6.80759 70.8475 5.95425 70.1275 5.34092C69.4342 4.70092 68.6075 4.38092 67.6475 4.38092C66.6875 4.38092 65.8475 4.70092 65.1275 5.34092C64.4342 5.95425 64.0875 6.80759 64.0875 7.90092C64.0875 8.99425 64.4342 9.86092 65.1275 10.5009C65.3496 10.6901 65.5831 10.8501 65.828 10.9809C66.3771 11.2743 66.9836 11.4209 67.6475 11.4209C68.3114 11.4209 68.9115 11.2743 69.4479 10.9809ZM110.582 19.781C110.022 21.1676 109.742 22.7943 109.742 24.661C109.742 26.2076 109.956 27.6476 110.382 28.981C110.836 30.3143 111.516 31.4743 112.422 32.461C113.356 33.421 114.516 34.181 115.902 34.741C117.316 35.301 118.969 35.581 120.862 35.581C121.609 35.581 122.356 35.541 123.102 35.461C123.849 35.381 124.542 35.2743 125.182 35.141C125.849 35.0343 126.449 34.901 126.982 34.741C127.516 34.581 127.942 34.421 128.262 34.261L127.462 29.421C127.432 29.4344 127.401 29.4477 127.369 29.461C126.716 29.7374 125.88 29.9774 124.862 30.181C124.76 30.1992 124.658 30.2166 124.556 30.2331C123.613 30.385 122.648 30.461 121.662 30.461C120.02 30.461 118.699 30.1276 117.698 29.461C117.659 29.4348 117.62 29.4081 117.582 29.381C116.569 28.661 115.996 27.6876 115.862 26.461H129.382C129.409 26.141 129.436 25.781 129.462 25.381L129.465 25.3328L129.469 25.2602C129.491 24.881 129.502 24.5346 129.502 24.221C129.502 20.6743 128.636 17.9943 126.902 16.181C125.169 14.341 122.809 13.421 119.822 13.421C118.542 13.421 117.289 13.661 116.062 14.141C114.862 14.621 113.796 15.3276 112.862 16.261C111.929 17.1943 111.169 18.3676 110.582 19.781ZM118.182 18.701C117.791 18.8746 117.454 19.1013 117.169 19.381C117.104 19.4449 117.042 19.5115 116.982 19.581C116.662 19.9543 116.409 20.3943 116.222 20.901C116.062 21.381 115.942 21.8743 115.862 22.381H123.742C123.716 21.8743 123.622 21.381 123.462 20.901C123.329 20.421 123.102 19.9943 122.782 19.621C122.717 19.5376 122.647 19.4576 122.572 19.381C122.312 19.1141 121.995 18.8874 121.622 18.701C121.169 18.461 120.596 18.341 119.902 18.341C119.236 18.341 118.662 18.461 118.182 18.701ZM131.102 29.461V33.0429L130.51 29.461H131.102ZM134.102 14.7009C135.115 14.4076 136.422 14.1409 138.022 13.9009C139.622 13.6343 141.302 13.5009 143.062 13.5009C144.848 13.5009 146.328 13.7409 147.502 14.2209C148.702 14.6742 149.648 15.3276 150.342 16.1809C151.035 17.0343 151.528 18.0476 151.822 19.2209C152.115 20.3943 152.262 21.7009 152.262 23.1409V35.0209H146.302V23.8609C146.302 21.9409 146.048 20.5809 145.542 19.7809C145.035 18.9809 144.088 18.5809 142.702 18.5809C142.275 18.5809 141.822 18.6076 141.342 18.6609C140.862 18.6876 140.435 18.7276 140.062 18.7809V35.0209H134.102V14.7009ZM57.6756 80.8609C58.769 81.2076 60.1823 81.3943 61.9156 81.4209L62.7556 76.5009C62.2092 76.4605 61.7473 76.3816 61.3699 76.2643C61.2499 76.2271 61.1385 76.186 61.0356 76.1409C60.609 75.9543 60.2756 75.7143 60.0356 75.4209C59.8223 75.1276 59.6756 74.7676 59.5956 74.3409C59.5156 73.9143 59.4756 73.4343 59.4756 72.9009V49.9809L53.5156 50.9409V74.1009C53.5156 75.2209 53.6223 76.2343 53.8356 77.1409C54.0756 78.0209 54.5023 78.7809 55.1156 79.4209C55.7556 80.0343 56.609 80.5143 57.6756 80.8609ZM62.4989 73.4533C62.4932 73.3919 62.4884 73.3265 62.4847 73.2568C62.4978 73.324 62.5113 73.391 62.5253 73.4577L62.4989 73.4533ZM62.4756 46.459V66.6731C62.6229 65.9477 62.8253 65.2415 63.0868 64.5572C63.707 62.9075 64.6239 61.4463 65.8506 60.2196L65.8659 60.2042L65.8815 60.1891C67.1414 58.9652 68.6422 58.0587 70.331 57.4472C72.0526 56.7969 73.9206 56.5009 75.8919 56.5009C76.7045 56.5009 77.5255 56.545 78.3544 56.6319C79.1794 56.6901 79.9934 56.7764 80.7961 56.8911C81.6023 57.0062 82.3792 57.1511 83.125 57.3278C83.8678 57.4724 84.5606 57.6374 85.1939 57.8274L87.3319 58.4688V58.829L88.9308 58.2694C90.1315 57.8492 91.497 57.4739 93.0119 57.1367C94.7362 56.731 96.592 56.541 98.5619 56.541C99.0108 56.541 99.4918 56.5756 99.9868 56.6316C100.499 56.6649 101.01 56.7251 101.518 56.8119C102.031 56.8752 102.541 56.9655 103.048 57.082C103.625 57.1883 104.206 57.3425 104.756 57.5717L107.033 58.5207L106.775 59.7908C107.116 59.4821 107.472 59.1932 107.841 58.9242C107.605 58.7687 107.377 58.5955 107.158 58.4048L107.13 58.3809L107.103 58.3564C105.787 57.1545 105.206 55.5616 105.206 53.901C105.206 52.2538 105.78 50.6502 107.129 49.4619C108.288 48.4151 109.719 47.861 111.286 47.861C112.854 47.861 114.284 48.4151 115.443 49.4619C115.549 49.5551 115.65 49.6508 115.746 49.7489C115.843 49.6508 115.944 49.555 116.05 49.4618C117.208 48.415 118.639 47.861 120.206 47.861C121.773 47.861 123.204 48.415 124.363 49.4617C125.712 50.6499 126.286 52.2536 126.286 53.901C126.286 55.5616 125.705 57.1545 124.389 58.3564L124.362 58.3809L124.335 58.4048C124.125 58.5871 123.907 58.7534 123.682 58.9035C124.293 59.3467 124.863 59.8457 125.387 60.4011C126.343 61.4126 127.111 62.5706 127.703 63.8506V58.3882L129.94 57.7997C130.507 57.6505 131.14 57.5069 131.832 57.3677C132.586 57.1951 133.361 57.0519 134.156 56.9372C135.005 56.7924 135.864 56.6906 136.734 56.6309C137.612 56.5446 138.482 56.5009 139.343 56.5009C141.066 56.5009 142.722 56.7192 144.155 57.3224C144.611 57.5012 145.052 57.7014 145.476 57.9257C146.09 57.6265 146.731 57.3723 147.396 57.1612L147.406 57.1581L147.416 57.1551C148.753 56.7412 150.084 56.5009 151.383 56.5009C153.299 56.5009 155.118 56.7675 156.693 57.4665C158.209 58.1027 159.515 59.0634 160.503 60.3809C161.44 61.6304 162.044 63.0655 162.362 64.6197C162.65 66.0258 162.783 67.5381 162.783 69.1409V84.0209H127.703V77.2349C127.138 78.463 126.405 79.5811 125.495 80.5708L125.481 80.5859L125.467 80.6008C124.259 81.8804 122.812 82.8609 121.166 83.5477C119.492 84.2573 117.676 84.581 115.766 84.581C113.869 84.581 112.058 84.2525 110.372 83.5502L110.362 83.5459L110.352 83.5414C108.73 82.8516 107.305 81.8707 106.105 80.6008L106.091 80.5859L106.077 80.5708C104.887 79.2757 103.986 77.7612 103.355 76.0683L103.352 76.0594L103.348 76.0505C102.708 74.2969 102.406 72.4237 102.406 70.461C102.406 69.7391 102.447 69.0301 102.531 68.3355L101.874 68.1714C101.417 68.057 100.853 67.9363 100.176 67.8108L100.123 67.8011L100.071 67.7895C99.7146 67.7103 99.3195 67.6561 98.8819 67.6332V84.021H86.9219V82.3796C86.4157 84.6403 85.4132 86.6341 83.7628 88.1916C81.2411 90.6242 77.6433 91.5409 73.6119 91.5409C72.1531 91.5409 70.698 91.405 69.2486 91.1351C67.8374 90.8984 66.4996 90.5692 65.2424 90.14L62.7352 89.2838L63.7408 84.4494L61.8695 84.4206C59.9771 84.3915 58.2442 84.1884 56.7689 83.7206L56.7586 83.7174L56.7484 83.714C55.3627 83.2637 54.0808 82.5844 53.0399 81.5869L52.9938 81.5427L52.9497 81.4967C51.9798 80.4846 51.309 79.2785 50.9413 77.9303L50.9275 77.8794L50.9154 77.8281C50.7369 77.0696 50.622 76.2787 50.5631 75.4609H49.9236L50.9969 81.9547L49.0179 82.9442C48.4837 83.2113 47.8766 83.4289 47.2583 83.6144C46.5948 83.8134 45.8853 83.9702 45.1392 84.0921C44.4101 84.2414 43.6412 84.3575 42.8358 84.4438C41.9836 84.5351 41.1303 84.5809 40.2763 84.5809C38.0941 84.5809 36.0509 84.2589 34.2112 83.5299L34.202 83.5263L34.1929 83.5226C32.4647 82.8247 30.9417 81.8444 29.6853 80.5521L29.6558 80.5219L29.6273 80.4908C28.4242 79.1815 27.5365 77.6542 26.9559 75.9466L26.9472 75.921L26.939 75.8952C26.4433 74.3462 26.1906 72.7157 26.1595 71.0201C25.765 71.3844 25.3336 71.7241 24.8641 72.0371L24.8538 72.044L24.8434 72.0508C22.1448 73.8177 18.6492 74.6122 14.64 74.7264V84.021H2.39999V51.2321L4.82275 50.757C6.31529 50.4644 7.87868 50.2628 9.50998 50.1483C11.0787 50.0382 12.4849 49.981 13.72 49.981C18.1342 49.981 21.98 50.7514 24.8866 52.6732C27.7617 54.5486 29.1906 57.4487 29.4966 60.8531C29.7066 60.6066 29.9259 60.3686 30.1549 60.1396C31.3693 58.9252 32.7767 57.9896 34.3621 57.3555L34.3726 57.3513L34.3831 57.3472C35.9477 56.7349 37.5712 56.4209 39.2363 56.4209C42.883 56.4209 46.0904 57.5706 48.4926 60.1161C49.3343 60.9984 50.0019 61.9964 50.5156 63.0885V48.3855L62.4756 46.459ZM67.4919 77.0609C66.9146 76.414 66.4451 75.6724 66.0833 74.836C65.9283 74.4778 65.7931 74.1022 65.6777 73.7092C65.3405 72.5613 65.1719 71.2653 65.1719 69.8209C65.1719 68.2742 65.4119 66.8743 65.8919 65.6209C66.3719 64.3409 67.0652 63.2476 67.9719 62.3409C68.9052 61.4342 70.0385 60.7409 71.3719 60.2609C72.7052 59.7542 74.2119 59.5009 75.8919 59.5009C76.6119 59.5009 77.3452 59.5409 78.0919 59.6209C78.8652 59.6742 79.6252 59.7542 80.3719 59.8609C81.1185 59.9676 81.8252 60.1009 82.4919 60.2609C83.1852 60.3942 83.7985 60.5409 84.3319 60.7009V78.3809C84.3319 81.8209 83.4519 84.3676 81.6919 86.0209C79.9585 87.7009 77.2652 88.5409 73.6119 88.5409C72.3319 88.5409 71.0519 88.4209 69.7719 88.1809C68.4919 87.9676 67.3052 87.6743 66.2119 87.3009L67.2519 82.3009C68.1738 82.6697 69.1347 82.9604 70.1347 83.173L70.1719 83.1809C71.2119 83.3943 72.3852 83.5009 73.6919 83.5009C75.3985 83.5009 76.5985 83.1276 77.2919 82.3809C77.3315 82.3398 77.3701 82.298 77.4076 82.2556C78.0505 81.5278 78.3719 80.6096 78.3719 79.5009V78.7409C77.7319 79.0343 77.0652 79.2609 76.3719 79.4209C76.2216 79.451 76.0679 79.4776 75.9109 79.5009C75.7352 79.527 75.5553 79.5488 75.3711 79.5663C74.9896 79.6027 74.5898 79.6209 74.1719 79.6209C71.2652 79.6209 69.0385 78.7676 67.4919 77.0609ZM126.086 70.461C126.086 72.1143 125.846 73.6343 125.366 75.021C124.886 76.381 124.193 77.5543 123.286 78.541C122.38 79.501 121.286 80.2476 120.006 80.781C118.753 81.3143 117.34 81.581 115.766 81.581C114.22 81.581 112.806 81.3143 111.526 80.781C110.273 80.2476 109.193 79.501 108.286 78.541C107.38 77.5543 106.673 76.381 106.166 75.021C105.66 73.6343 105.406 72.1143 105.406 70.461C105.406 68.8076 105.66 67.301 106.166 65.941C106.7 64.581 107.42 63.421 108.326 62.461C109.26 61.501 110.353 60.7543 111.606 60.221C112.886 59.6876 114.273 59.421 115.766 59.421C117.286 59.421 118.673 59.6876 119.926 60.221C121.206 60.7543 122.3 61.501 123.206 62.461C124.113 63.421 124.82 64.581 125.326 65.941C125.833 67.301 126.086 68.8076 126.086 70.461ZM120.006 70.461C120.006 72.301 119.633 73.7676 118.886 74.861C118.166 75.9276 117.126 76.461 115.766 76.461C114.406 76.461 113.353 75.9276 112.606 74.861C111.86 73.7676 111.486 72.301 111.486 70.461C111.486 68.621 111.86 67.181 112.606 66.141C113.353 65.0743 114.406 64.541 115.766 64.541C117.126 64.541 118.166 65.0743 118.886 66.141C119.633 67.181 120.006 68.621 120.006 70.461ZM114.486 70.461C114.486 71.9085 114.78 72.7157 115.074 73.1542C115.188 73.3145 115.27 73.3638 115.311 73.3845C115.358 73.4083 115.485 73.461 115.766 73.461C116.048 73.461 116.165 73.4079 116.197 73.3915C116.223 73.3784 116.293 73.3399 116.4 73.1825L116.404 73.1758L116.409 73.1691C116.706 72.7341 117.006 71.9251 117.006 70.461C117.006 68.9848 116.701 68.2416 116.449 67.8906L116.424 67.8553L116.4 67.8194C116.293 67.662 116.223 67.6235 116.197 67.6104C116.165 67.594 116.048 67.541 115.766 67.541C115.485 67.541 115.358 67.5937 115.311 67.6174C115.269 67.6387 115.184 67.6902 115.064 67.8613L115.054 67.876L115.043 67.8906C114.791 68.2416 114.486 68.9848 114.486 70.461ZM118.046 56.141C117.687 55.8125 117.432 55.4199 117.284 54.9631C117.179 54.641 117.126 54.2869 117.126 53.901C117.126 53.5145 117.179 53.1623 117.284 52.8444C117.433 52.3946 117.687 52.0134 118.046 51.701C118.66 51.141 119.38 50.861 120.206 50.861C121.033 50.861 121.753 51.141 122.366 51.701C122.98 52.2343 123.286 52.9676 123.286 53.901C123.286 54.8343 122.98 55.581 122.366 56.141C121.753 56.6743 121.033 56.941 120.206 56.941C119.38 56.941 118.66 56.6743 118.046 56.141ZM114.366 53.901C114.366 54.2869 114.314 54.641 114.209 54.9631C114.06 55.4199 113.806 55.8125 113.446 56.141C112.833 56.6743 112.113 56.941 111.286 56.941C110.46 56.941 109.74 56.6743 109.126 56.141C108.513 55.581 108.206 54.8343 108.206 53.901C108.206 52.9676 108.513 52.2343 109.126 51.701C109.74 51.141 110.46 50.861 111.286 50.861C112.113 50.861 112.833 51.141 113.446 51.701C113.806 52.0134 114.06 52.3946 114.208 52.8444C114.314 53.1623 114.366 53.5145 114.366 53.901ZM142.263 69.8609C142.263 67.9409 142.01 66.5809 141.503 65.7809C141.023 64.9809 140.183 64.5809 138.983 64.5809C138.61 64.5809 138.223 64.6076 137.823 64.6609C137.423 64.6876 137.036 64.7276 136.663 64.7809V81.0209H130.703V60.7009C131.21 60.5676 131.796 60.4342 132.463 60.3009C133.156 60.1409 133.876 60.0076 134.623 59.9009C135.396 59.7676 136.183 59.6742 136.983 59.6209C137.783 59.5409 138.57 59.5009 139.343 59.5009C140.863 59.5009 142.09 59.7009 143.023 60.1009C143.983 60.4743 144.77 60.9276 145.383 61.4609C146.236 60.8476 147.21 60.3676 148.303 60.0209C149.423 59.6742 150.45 59.5009 151.383 59.5009C153.063 59.5009 154.436 59.7409 155.503 60.2209C156.596 60.6742 157.463 61.3276 158.103 62.1809C158.743 63.0343 159.183 64.0476 159.423 65.2209C159.663 66.3942 159.783 67.7009 159.783 69.1409V81.0209H153.823V69.8609C153.823 67.9409 153.57 66.5809 153.063 65.7809C152.599 65.008 151.8 64.6084 150.664 64.5823C150.624 64.5814 150.584 64.5809 150.543 64.5809C150.223 64.5809 149.77 64.6609 149.183 64.8209C148.623 64.9809 148.156 65.1809 147.783 65.4209C147.97 66.0343 148.09 66.6876 148.143 67.3809C148.196 68.0476 148.223 68.7676 148.223 69.5409V81.0209H142.263V69.8609ZM100.722 64.8609C101.442 64.9943 102.069 65.1276 102.602 65.261L103.602 60.341C103.282 60.2076 102.895 60.101 102.442 60.021C101.989 59.9143 101.535 59.8343 101.082 59.781C100.629 59.701 100.175 59.6476 99.7219 59.621C99.2685 59.5676 98.8819 59.541 98.5619 59.541C96.7752 59.541 95.1485 59.7143 93.6819 60.061C92.2419 60.381 90.9885 60.7276 89.9219 61.101V81.021H95.8819V64.9409C96.1485 64.8609 96.5352 64.7943 97.0419 64.741C97.5752 64.6609 98.0285 64.621 98.4019 64.621C98.9457 64.621 99.4664 64.6556 99.964 64.7248C100.223 64.7608 100.475 64.8062 100.722 64.8609ZM71.2519 69.8209C71.2519 73.1543 72.5985 74.8209 75.2919 74.8209C75.9052 74.8209 76.4785 74.7409 77.0119 74.5809C77.5452 74.4209 77.9986 74.2343 78.3719 74.0209V64.5009C78.0785 64.4476 77.7319 64.4076 77.3319 64.3809C76.9319 64.3276 76.4652 64.3009 75.9319 64.3009C74.3585 64.3009 73.1852 64.8209 72.4119 65.8609C71.6385 66.9009 71.2519 68.2209 71.2519 69.8209ZM75.3719 67.3468V71.8201C75.3456 71.8206 75.319 71.8209 75.2919 71.8209C74.9225 71.8209 74.7369 71.7634 74.6685 71.7351C74.619 71.7147 74.6094 71.7029 74.5954 71.6855C74.5354 71.6113 74.2519 71.1618 74.2519 69.8209C74.2519 68.7118 74.5135 68.0622 74.8193 67.651C74.8803 67.569 74.99 67.4215 75.3719 67.3468ZM29.1562 70.6609C29.1562 68.7942 29.4363 67.1676 29.9963 65.7809C30.5829 64.3676 31.3429 63.1942 32.2763 62.2609C33.2096 61.3276 34.2763 60.6209 35.4762 60.1409C36.7029 59.6609 37.9563 59.4209 39.2363 59.4209C42.2229 59.4209 44.5829 60.3409 46.3163 62.1809C48.0496 63.9942 48.9163 66.6742 48.9163 70.2209C48.9163 70.5346 48.9053 70.881 48.8835 71.2601L48.8763 71.3809C48.8496 71.7809 48.8229 72.1409 48.7963 72.4609H35.2763C35.4096 73.6876 35.9829 74.6609 36.9963 75.3809C37.0345 75.4081 37.0733 75.4348 37.1125 75.4609C38.1128 76.1276 39.434 76.4609 41.0763 76.4609C42.0625 76.4609 43.027 76.3849 43.9698 76.2331C44.0722 76.2166 44.1744 76.1992 44.2763 76.1809C45.2941 75.9773 46.1299 75.7373 46.7835 75.4609C46.8148 75.4476 46.8458 75.4343 46.8763 75.4209L47.6763 80.2609C47.3563 80.4209 46.9296 80.5809 46.3963 80.7409C45.8629 80.9009 45.2629 81.0342 44.5963 81.1409C43.9563 81.2742 43.2629 81.3809 42.5163 81.4609C41.7696 81.5409 41.0229 81.5809 40.2763 81.5809C38.3829 81.5809 36.7296 81.3009 35.3162 80.7409C33.9296 80.1809 32.7696 79.4209 31.8363 78.4609C30.9296 77.4742 30.2496 76.3142 29.7963 74.9809C29.3696 73.6476 29.1562 72.2076 29.1562 70.6609ZM36.5831 65.3809C36.8678 65.1012 37.2055 64.8746 37.5963 64.7009C38.0763 64.4609 38.6496 64.3409 39.3162 64.3409C40.0096 64.3409 40.5829 64.4609 41.0363 64.7009C41.4091 64.8873 41.7257 65.114 41.9859 65.3809C42.0607 65.4576 42.1308 65.5376 42.1963 65.6209C42.5163 65.9942 42.7429 66.4209 42.8763 66.9009C43.0363 67.3809 43.1296 67.8742 43.1562 68.3809H35.2763C35.3563 67.8742 35.4762 67.3809 35.6362 66.9009C35.8229 66.3942 36.0763 65.9542 36.3963 65.5809C36.4558 65.5115 36.518 65.4448 36.5831 65.3809ZM23.24 55.181C21.0267 53.7143 17.8533 52.981 13.72 52.981C12.5733 52.981 11.24 53.0343 9.71999 53.141C8.19999 53.2476 6.75999 53.4343 5.39999 53.701V81.021H11.64V71.741H13.6C17.76 71.741 20.96 71.0076 23.2 69.541C25.44 68.0476 26.56 65.6343 26.56 62.301C26.56 58.9943 25.4533 56.621 23.24 55.181ZM16.6 58.501C15.8533 58.3676 15.0267 58.301 14.12 58.301C13.6667 58.301 13.2133 58.3143 12.76 58.341C12.3333 58.3676 11.96 58.3943 11.64 58.421V66.421H13.6C13.9616 66.421 14.3083 66.4127 14.64 66.3963C16.2897 66.3145 17.5697 66.0294 18.48 65.541C19.5733 64.9543 20.12 63.861 20.12 62.261C20.12 61.4876 19.9733 60.8476 19.68 60.341C19.4133 59.8343 19.0133 59.4343 18.48 59.141C17.9733 58.821 17.3467 58.6076 16.6 58.501ZM14.64 63.3917C15.9316 63.3147 16.6725 63.0989 17.0394 62.9092C17.0656 62.8385 17.12 62.6451 17.12 62.261C17.12 61.9823 17.0834 61.8557 17.0735 61.8264L17.0534 61.7917L17.045 61.7757L17.0342 61.7696L16.9547 61.7259L16.878 61.6774C16.8088 61.6337 16.6085 61.5326 16.1757 61.4708L16.124 61.4634L16.0726 61.4542C15.6577 61.3801 15.1819 61.3298 14.64 61.3101V63.3917ZM87.81 23.8609C87.81 21.9409 87.5567 20.5809 87.05 19.7809C86.57 18.9809 85.73 18.5809 84.53 18.5809C84.1567 18.5809 83.77 18.6076 83.37 18.6609C82.97 18.6876 82.5833 18.7276 82.21 18.7809V35.0209H76.25V14.7009C76.7567 14.5676 77.3433 14.4343 78.01 14.3009C78.7033 14.1409 79.4233 14.0076 80.17 13.9009C80.9433 13.7676 81.73 13.6742 82.53 13.6209C83.33 13.5409 84.1167 13.5009 84.89 13.5009C86.41 13.5009 87.6367 13.7009 88.57 14.1009C89.53 14.4743 90.3167 14.9276 90.93 15.4609C91.7833 14.8476 92.7567 14.3676 93.85 14.0209C94.97 13.6742 95.9967 13.5009 96.93 13.5009C98.61 13.5009 99.9833 13.7409 101.05 14.2209C102.143 14.6742 103.01 15.3276 103.65 16.1809C104.29 17.0343 104.73 18.0476 104.97 19.2209C105.21 20.3943 105.33 21.7009 105.33 23.1409V35.0209H99.37V23.8609C99.37 21.9409 99.1167 20.5809 98.61 19.7809C98.1462 19.008 97.3464 18.6084 96.2106 18.5823C96.1708 18.5814 96.1306 18.5809 96.09 18.5809C95.77 18.5809 95.3167 18.6609 94.73 18.8209C94.17 18.9809 93.7033 19.1809 93.33 19.4209C93.5167 20.0343 93.6367 20.6876 93.69 21.3809C93.7433 22.0476 93.77 22.7676 93.77 23.5409V35.0209H87.81V23.8609ZM56.085 11.4209C55.4211 11.4209 54.8146 11.2743 54.2655 10.9809C54.0206 10.8501 53.7871 10.6901 53.565 10.5009C52.8717 9.86092 52.525 8.99425 52.525 7.90092C52.525 6.80759 52.8717 5.95425 53.565 5.34092C54.285 4.70092 55.125 4.38092 56.085 4.38092C57.045 4.38092 57.8717 4.70092 58.565 5.34092C59.285 5.95425 59.645 6.80759 59.645 7.90092C59.645 8.99425 59.285 9.86092 58.565 10.5009C58.3511 10.6901 58.1246 10.8501 57.8854 10.9809C57.349 11.2743 56.7489 11.4209 56.085 11.4209ZM25.96 7.3009V12.6209H17.6V35.0209H11.36V12.6209H3V7.3009H25.96Z" fill="#222222"/>
</svg>
