<svg width="173" height="74" viewBox="0 0 173 74" fill="none" xmlns="http://www.w3.org/2000/svg">
<path fill-rule="evenodd" clip-rule="evenodd" d="M7.21875 29.2056H14.9336V6.95953H21.8867V0.65094H0.246094V6.95953H7.21875V29.2056ZM162.375 29.2056H172.492V0.65094H165.617V13.5611C165.617 14.2121 165.63 14.9608 165.656 15.8072C165.695 16.6535 165.734 17.4934 165.773 18.3267C165.812 19.147 165.852 19.8697 165.891 20.4947H165.773L155.383 0.65094H145.305V29.2056H152.141V16.3345C152.141 15.6184 152.121 14.8176 152.082 13.9322C152.043 13.0338 151.997 12.1548 151.945 11.2955C151.893 10.4361 151.835 9.70042 151.77 9.08844H151.945L162.375 29.2056ZM138.319 65.6297C138.793 64.0222 139.03 62.2412 139.03 60.2868C139.03 57.6501 138.608 55.3545 137.764 53.4001C136.919 51.4457 135.589 49.9307 133.774 48.8552C131.97 47.7797 129.622 47.2419 126.731 47.2419C123.886 47.2419 121.55 47.7797 119.723 48.8552C117.896 49.9191 116.542 51.4283 115.664 53.3827C114.796 55.3256 114.363 57.6154 114.363 60.2521C114.363 62.2297 114.605 64.0222 115.091 65.6297C115.577 67.2372 116.323 68.6191 117.329 69.7756C118.335 70.9205 119.613 71.8052 121.163 72.4297C122.724 73.0426 124.568 73.3491 126.696 73.3491C128.87 73.3491 130.738 73.0426 132.299 72.4297C133.861 71.8052 135.138 70.9147 136.133 69.7582C137.128 68.6018 137.856 67.2256 138.319 65.6297ZM122.099 64.2246C121.752 63.1259 121.579 61.8133 121.579 60.2868C121.579 58.7603 121.747 57.4419 122.082 56.3317C122.429 55.2215 122.978 54.3657 123.73 53.7644C124.493 53.163 125.494 52.8623 126.731 52.8623C128.593 52.8623 129.905 53.5273 130.669 54.8572C131.432 56.1871 131.814 57.997 131.814 60.2868C131.814 61.8133 131.646 63.1259 131.311 64.2246C130.987 65.3232 130.449 66.1674 129.697 66.7572C128.957 67.347 127.957 67.6419 126.696 67.6419C125.482 67.6419 124.499 67.347 123.747 66.7572C122.996 66.1674 122.446 65.3232 122.099 64.2246ZM120.434 40.6848C119.867 41.1242 119.584 41.8181 119.584 42.7664C119.584 43.68 119.867 44.3623 120.434 44.8133C121.001 45.2528 121.7 45.4725 122.533 45.4725C123.331 45.4725 124.025 45.2528 124.615 44.8133C125.216 44.3623 125.517 43.68 125.517 42.7664C125.517 41.8181 125.216 41.1242 124.615 40.6848C124.025 40.2453 123.331 40.0256 122.533 40.0256C121.7 40.0256 121.001 40.2453 120.434 40.6848ZM128.743 40.6848C128.177 41.1242 127.893 41.8181 127.893 42.7664C127.893 43.68 128.177 44.3623 128.743 44.8133C129.321 45.2528 130.033 45.4725 130.877 45.4725C131.686 45.4725 132.386 45.2528 132.976 44.8133C133.577 44.3623 133.878 43.68 133.878 42.7664C133.878 41.8181 133.577 41.1242 132.976 40.6848C132.386 40.2453 131.686 40.0256 130.877 40.0256C130.033 40.0256 129.321 40.2453 128.743 40.6848ZM149.473 54.7358L154.66 73.0021H161.182L166.299 54.7705H166.455C166.421 55.2446 166.38 55.8922 166.334 56.7133C166.299 57.5229 166.265 58.3902 166.23 59.3154C166.207 60.229 166.195 61.0848 166.195 61.8827V73.0021H172.492V47.6409H163.35L158.164 65.647H158.025L152.734 47.6409H143.609V73.0021H149.681V61.9868C149.681 61.1194 149.658 60.2174 149.612 59.2807C149.565 58.3439 149.513 57.4708 149.455 56.6613C149.409 55.8518 149.363 55.2099 149.317 54.7358H149.473ZM99.5656 47.6409C101.867 47.6409 103.781 47.9242 105.307 48.4909C106.834 49.046 107.979 49.8786 108.742 50.9888C109.517 52.099 109.904 53.481 109.904 55.1348C109.904 56.164 109.731 57.1007 109.384 57.945C109.037 58.7892 108.54 59.5467 107.892 60.2174C107.256 60.8766 106.493 61.4548 105.602 61.9521L112.992 73.0021H105.221L99.8431 63.7735H98.1085V73.0021H91.2564V47.6409H99.5656ZM99.4615 52.8276H98.1085V58.6215H99.3921C100.445 58.6215 101.306 58.3902 101.977 57.9276C102.648 57.465 102.983 56.6382 102.983 55.447C102.983 54.6259 102.705 53.9841 102.15 53.5215C101.595 53.0589 100.699 52.8276 99.4615 52.8276ZM86.087 58.1531H75.1411V63.444H79.6686V67.4164C79.368 67.4974 78.9227 67.5668 78.3329 67.6246C77.7547 67.6824 77.2632 67.7113 76.8584 67.7113C75.6326 67.7113 74.586 67.4338 73.7186 66.8787C72.8629 66.312 72.2095 65.4909 71.7584 64.4154C71.319 63.3283 71.0993 61.9984 71.0993 60.4256C71.0993 59.0494 71.3074 57.7946 71.7237 56.6613C72.1401 55.5164 72.805 54.6028 73.7186 53.9205C74.6438 53.2382 75.8639 52.897 77.3789 52.897C78.5122 52.897 79.5704 53.0127 80.5533 53.244C81.5363 53.4637 82.4846 53.7991 83.3982 54.2501L85.5666 48.8725C84.5142 48.4099 83.2768 48.0283 81.8544 47.7276C80.4319 47.427 78.9285 47.2766 77.3442 47.2766C74.4646 47.2766 72.0302 47.8086 70.0411 48.8725C68.0635 49.9249 66.5659 51.4225 65.5482 53.3654C64.5305 55.2967 64.0217 57.5923 64.0217 60.2521C64.0217 63.2127 64.5363 65.6644 65.5656 67.6072C66.5948 69.5385 68.0288 70.9783 69.8676 71.9266C71.7064 72.8749 73.8459 73.3491 76.286 73.3491C78.1363 73.3491 79.9057 73.2103 81.5942 72.9328C83.2826 72.6436 84.7802 72.2736 86.087 71.8225V58.1531ZM44.2809 73.0021V47.6409H51.1329V67.4684H60.8993V73.0021H44.2809ZM24.7829 73.0021H39.8401V67.4164H31.6349V62.6286H39.2329V57.1297H31.6349V53.1399H39.8401V47.6409H24.7829V73.0021ZM11.1135 47.6409C14.3285 47.6409 16.7339 48.3405 18.3298 49.7398C19.9373 51.1392 20.7411 53.1283 20.7411 55.7072C20.7411 56.8637 20.5734 57.9739 20.238 59.0378C19.9142 60.1018 19.3764 61.0501 18.6247 61.8827C17.8846 62.7154 16.8958 63.3746 15.6584 63.8603C14.4325 64.346 12.9176 64.5888 11.1135 64.5888H9.18798V73.0021H2.33594V47.6409H11.1135ZM10.9574 53.1745H9.18798V59.0031H10.541C11.1308 59.0031 11.6802 58.9048 12.189 58.7082C12.6979 58.5001 13.1026 58.1705 13.4033 57.7194C13.7155 57.2569 13.8717 56.6439 13.8717 55.8807C13.8717 55.0827 13.6346 54.4351 13.1604 53.9378C12.6863 53.429 11.9519 53.1745 10.9574 53.1745ZM140.305 29.2056H123.352V0.65094H140.305V6.84235H131.066V11.3345H139.621V17.5259H131.066V22.9166H140.305V29.2056ZM91.2812 8.63922L97.1211 29.2056H104.465L110.227 8.67828H110.402C110.363 9.21214 110.318 9.9413 110.266 10.8658C110.227 11.7772 110.188 12.7538 110.148 13.7955C110.122 14.8241 110.109 15.7877 110.109 16.6861V29.2056H117.199V0.65094H106.906L101.066 20.9244H100.91L94.9531 0.65094H84.6797V29.2056H91.5156V16.8033C91.5156 15.8267 91.4896 14.8111 91.4375 13.7564C91.3854 12.7017 91.3268 11.7186 91.2617 10.8072C91.2096 9.89573 91.1576 9.17308 91.1055 8.63922H91.2812ZM68.332 38.1705C67.4596 38.1705 66.6979 38.1249 66.0469 38.0338C65.3828 37.9556 64.8099 37.8645 64.3281 37.7603V31.7642C64.7448 31.8423 65.1875 31.927 65.6562 32.0181C66.125 32.1223 66.6328 32.1744 67.1797 32.1744C68.1042 32.1744 68.8203 31.9856 69.3281 31.608C69.849 31.2304 70.2135 30.664 70.4219 29.9088C70.6302 29.1535 70.7344 28.2095 70.7344 27.0767V0.65094H78.4883V26.4127C78.4883 29.2772 78.0586 31.5689 77.1992 33.2877C76.3398 35.0064 75.1484 36.2499 73.625 37.0181C72.1016 37.7864 70.3372 38.1705 68.332 38.1705ZM56.6328 0.65094V29.2056H64.3867V0.65094H56.6328ZM50.4414 29.2056H42.6875V17.565H33.7227V29.2056H25.9688V0.65094H33.7227V11.2369H42.6875V0.65094H50.4414V29.2056Z" fill="black"/>
</svg>
